<?xml version="1.0" encoding="UTF-8"?>
<svg version="1.1" xmlns="http://www.w3.org/2000/svg" width="1563" height="1563">
<path d="M0 0 C25.08 0 50.16 0 76 0 C76.33 31.35 76.66 62.7 77 95 C79.31 93.02 81.62 91.04 84 89 C103.55177791 74.841816 129.75879958 72.89078707 152.9296875 76.3203125 C165.44441063 78.34113746 176.14671022 81.9070525 187.26660156 88.04345703 C188.76776117 88.87184342 190.28492745 89.67109721 191.8046875 90.46484375 C199.16396415 94.52067513 205.06636781 100.13908389 211 106 C211.78375 106.75925781 212.5675 107.51851562 213.375 108.30078125 C220.68656092 115.86041299 225.75118101 124.95683623 231 134 C231.81791016 132.65808594 231.81791016 132.65808594 232.65234375 131.2890625 C237.48062284 123.49677154 242.58640909 116.59848722 249 110 C249.62261719 109.31550781 250.24523438 108.63101563 250.88671875 107.92578125 C272.44294235 84.92343783 303.59983167 76.63701831 333.96875 74.75390625 C337.33958292 74.68696214 340.63526838 74.78733073 344 75 C344.69834961 75.04253906 345.39669922 75.08507812 346.11621094 75.12890625 C370.47725925 76.75506095 395.12110093 83.8692951 414 100 C414.9796875 100.81984375 415.959375 101.6396875 416.96875 102.484375 C428.42345046 112.35055992 436.0241195 123.67141933 443 137 C443.1727727 131.81268349 443.33877875 126.62518606 443.5 121.4375 C443.52400879 120.66922882 443.54801758 119.90095764 443.57275391 119.10940552 C443.9067341 108.25036336 444.10217726 97.40799861 443.96289062 86.54272461 C443.94166789 84.36188459 443.96535185 82.18066804 444 80 C445 79 445 79 447.85365295 78.87974548 C449.13050461 78.88196609 450.40735626 78.88418671 451.72290039 78.88647461 C452.4253035 78.88632858 453.1277066 78.88618256 453.85139465 78.8860321 C456.18351278 78.88673128 458.515552 78.89452383 460.84765625 78.90234375 C462.46048438 78.90420792 464.07331307 78.90563182 465.68614197 78.90663147 C469.93915357 78.91045677 474.19213124 78.92028715 478.44512939 78.93133545 C482.7817743 78.94154931 487.11842467 78.94612904 491.45507812 78.95117188 C499.97006942 78.96190941 508.48502659 78.9795063 517 79 C517.33 86.59 517.66 94.18 518 102 C520.64 99.36 523.28 96.72 526 94 C545.26773731 79.24849323 564.77936432 76.34559087 589 75 C589 97.77 589 120.54 589 144 C579.43 144 569.86 144 560 144 C551.45099721 146.6304624 545.29336719 148.59702268 538 153 C537.278125 153.34417969 536.55625 153.68835938 535.8125 154.04296875 C533.40072618 155.31642691 533.13660716 156.52620794 532 159 C531.21625 160.010625 530.4325 161.02125 529.625 162.0625 C522.72720904 171.53165682 521.85871051 182.56302146 521.79467773 193.87060547 C521.77982834 195.49588921 521.77982834 195.49588921 521.76467896 197.15400696 C521.73316492 200.72504513 521.70834644 204.29609659 521.68359375 207.8671875 C521.66301551 210.34726298 521.64201881 212.82733502 521.62062073 215.30740356 C521.56548996 221.8273642 521.51604103 228.34735603 521.46777344 234.86737061 C521.41800531 241.52359125 521.36184095 248.17976011 521.30664062 254.8359375 C521.19916908 267.89058615 521.09751728 280.94527339 521 294 C511.10810624 294.02312428 501.21621886 294.04091552 491.32430363 294.05181217 C486.7315736 294.05704082 482.138862 294.06413812 477.54614258 294.07543945 C473.11766312 294.086269 468.68920144 294.09227698 464.26070976 294.09487724 C462.56734372 294.09673137 460.87397871 294.10035175 459.18062019 294.10573006 C456.81708768 294.1129414 454.45362955 294.1139909 452.09008789 294.11352539 C451.38302704 294.11712067 450.67596619 294.12071594 449.94747925 294.12442017 C445.11405216 294.11405216 445.11405216 294.11405216 444 293 C443.90485278 290.29158206 443.87446375 287.60884954 443.88647461 284.90014648 C443.88629381 283.60642545 443.88629381 283.60642545 443.88610935 282.28656864 C443.88685861 279.48138454 443.8944874 276.67626604 443.90234375 273.87109375 C443.90381313 272.14457227 443.90483386 270.41805034 443.90539551 268.69152832 C443.91064884 262.27351211 443.92460992 255.85550542 443.9375 249.4375 C443.958125 235.103125 443.97875 220.76875 444 206 C395.16 206 346.32 206 296 206 C303.45102486 220.90204972 309.68109263 229.72436325 325 235.75 C342.8789179 240.99741527 363.14806533 240.06312664 380 232 C385.60737909 228.69242155 390.81215284 224.92133048 396 221 C400.33389799 222.66607271 403.13295035 225.87528607 406.3125 229.125 C406.85583984 229.66898438 407.39917969 230.21296875 407.95898438 230.7734375 C410.87430614 233.71973671 413.65830304 236.73547125 416.35546875 239.8828125 C418.92588144 242.85486334 421.61010389 245.63054198 424.4375 248.359375 C425.18644531 249.08253906 425.93539062 249.80570313 426.70703125 250.55078125 C428.25977765 252.04004228 429.81992667 253.52161676 431.38671875 254.99609375 C432.49466797 256.07310547 432.49466797 256.07310547 433.625 257.171875 C434.29789063 257.8122168 434.97078125 258.45255859 435.6640625 259.11230469 C437 261 437 261 436.83178711 263.10717773 C431.4918459 275.25879622 411.74783015 284.08049559 400 289 C384.70262161 294.73563122 368.27137407 297.38563462 352 298 C350.37191406 298.07927734 350.37191406 298.07927734 348.7109375 298.16015625 C314.59305322 299.04583496 281.33788237 290.13842799 255 268 C254.08089844 267.30261719 253.16179687 266.60523438 252.21484375 265.88671875 C251.48394531 265.26410156 250.75304688 264.64148438 250 264 C250 263.34 250 262.68 250 262 C249.01 261.67 248.02 261.34 247 261 C245.11059194 258.87075996 243.35607958 256.7516547 241.625 254.5 C241.13475342 253.87013184 240.64450684 253.24026367 240.1394043 252.59130859 C236.6029922 247.97244175 233.5178925 243.25836113 231 238 C230.53851562 238.85980469 230.07703125 239.71960938 229.6015625 240.60546875 C215.58073369 266.21840765 194.62338922 285.56814942 166.30078125 294.19140625 C138.35803531 301.0365523 108.8432708 300.04569382 83.74609375 284.9140625 C79.6183077 282.03694278 76.38671992 278.71236607 73 275 C72.67 281.27 72.34 287.54 72 294 C48.24 294 24.48 294 0 294 C0 244.17 0 194.34 0 143 C-16.09709974 143.89428332 -26.76105616 145.00770125 -40 153 C-40.69996094 153.29648437 -41.39992188 153.59296875 -42.12109375 153.8984375 C-44.48493562 155.28430737 -44.9115755 156.521319 -46 159 C-46.95018086 160.29767557 -47.90918656 161.58891682 -48.875 162.875 C-59.28081181 178.36922834 -57.17709228 199.23082994 -57.31640625 217.046875 C-57.33701115 219.27175247 -57.35800846 221.49662634 -57.37937927 223.72149658 C-57.43423518 229.54102639 -57.48380338 235.36058936 -57.53222656 241.18017578 C-57.59160612 248.18217547 -57.65763081 255.18411535 -57.72252655 262.18606567 C-57.82007616 272.79067352 -57.9092462 283.39532201 -58 294 C-83.08 294 -108.16 294 -134 294 C-134 223.05 -134 152.1 -134 79 C-109.91 79 -85.82 79 -61 79 C-60.505 90.385 -60.505 90.385 -60 102 C-58.783125 100.68 -57.56625 99.36 -56.3125 98 C-41.54210033 83.32177131 -20.57517437 76 0 76 C0 50.92 0 25.84 0 0 Z M303.6875 144.3125 C298.25922126 151.19037591 296.09111554 157.27107565 295 166 C323.38 166 351.76 166 381 166 C378.2432877 153.59479466 373.68587604 144.40330862 363.3203125 136.76171875 C361.59049736 135.6898955 359.85451166 134.8375214 358 134 C357.2575 133.62875 356.515 133.2575 355.75 132.875 C337.93711291 125.05470811 316.74597299 130.22396935 303.6875 144.3125 Z M85.1875 150.75 C76.76858285 160.99566332 74.64720206 172.95745788 74.6875 185.8125 C74.67138672 186.82892578 74.65527344 187.84535156 74.63867188 188.89257812 C74.62978825 202.83097857 79.01237449 215.63783877 88.62890625 225.890625 C99.10500741 235.2103855 109.53226727 237.60214201 123.09375 237.24609375 C134.39692935 236.53399345 144.66177611 231.33149444 152.40625 223.0390625 C159.38566068 214.10952237 163.32893261 203.28613329 164 192 C164.05285156 191.12988281 164.10570312 190.25976562 164.16015625 189.36328125 C164.58676472 175.47068361 161.8151352 161.43228593 152.92578125 150.43359375 C143.77606102 140.74095818 132.97320635 135.97213123 119.6875 135.5625 C105.82367967 135.89791501 94.74982926 140.71469531 85.1875 150.75 Z " fill="#000000" transform="translate(931,629)"/>
<path d="M0 0 C1.93963475 7.47050826 3.8784248 14.94123538 5.81665039 22.41210938 C6.47498825 24.94926826 7.13351365 27.4863785 7.79223633 30.0234375 C8.74350485 33.68736953 9.69408041 37.35148078 10.64453125 41.015625 C10.9352803 42.13487366 11.22602936 43.25412231 11.52558899 44.4072876 C12.08196528 46.55324613 12.63630381 48.69973424 13.18838501 50.84680176 C13.74548793 53.01119738 14.30827149 55.17413639 14.87582397 57.33581543 C15.15100861 58.40029907 15.42619324 59.46478271 15.7097168 60.56152344 C15.95787643 61.51170349 16.20603607 62.46188354 16.4617157 63.44085693 C17 66 17 66 17 70 C27.43525823 62.86526086 37.79924741 55.6373334 48.11572266 48.33203125 C52.06633725 45.53926716 56.03239105 42.76855268 60 40 C64.09749387 43.67497052 66.90385619 48.08205571 69.9375 52.625 C74.3801437 59.20039007 78.89621526 65.70629905 83.5625 72.125 C84.09045166 72.85420654 84.61840332 73.58341309 85.16235352 74.3347168 C87.35205237 77.35804547 89.54455532 80.37907751 91.75244141 83.38916016 C93.46917525 85.73205832 95.17295237 88.08392074 96.875 90.4375 C97.40552979 91.15373535 97.93605957 91.8699707 98.48266602 92.60791016 C99.73515134 94.3504433 100.87885113 96.17020043 102 98 C100.64185223 102.0744433 97.8691574 103.42021951 94.4375 105.6875 C93.82197266 106.10322266 93.20644531 106.51894531 92.57226562 106.94726562 C91.05293329 107.97193162 89.52707343 108.98690678 88 110 C89.32 110.33 90.64 110.66 92 111 C92 111.99 92 112.98 92 114 C90.54150391 115.40356445 90.54150391 115.40356445 88.4765625 116.86328125 C87.71214844 117.41306641 86.94773437 117.96285156 86.16015625 118.52929688 C85.32355469 119.11775391 84.48695313 119.70621094 83.625 120.3125 C81.86564477 121.57728386 80.10786851 122.84426659 78.3515625 124.11328125 C77.00626465 125.08322021 77.00626465 125.08322021 75.63378906 126.07275391 C71.68649262 128.96114454 67.84183818 131.97353911 64 135 C55.3340718 141.80514607 46.48001094 148.33964174 37.57202148 154.82348633 C36.04269791 155.90982522 36.04269791 155.90982522 35 157 C34.92794489 158.68608966 34.91613932 160.37500659 34.9375 162.0625 C34.95103516 163.44115234 34.95103516 163.44115234 34.96484375 164.84765625 C34.97644531 165.55792969 34.98804688 166.26820313 35 167 C35.680625 166.43152344 36.36125 165.86304688 37.0625 165.27734375 C49.08976997 155.69711142 61.77790403 150.45517677 77 148 C78.299375 147.773125 79.59875 147.54625 80.9375 147.3125 C108.24380577 144.52969177 136.5994359 151.11236599 158.48046875 167.94140625 C183.03570676 188.00436816 195.67590464 214.13126149 198.98339844 245.38598633 C199.35997514 249.25486367 199.69258915 253.1250053 200 257 C200.49886719 256.63648438 200.99773438 256.27296875 201.51171875 255.8984375 C226.35314445 238.50497965 255.81937849 238.72079852 284.98101807 238.39910889 C288.48808604 238.35848807 291.99500641 238.307667 295.50195312 238.2578125 C302.33452646 238.1621303 309.16719561 238.07739633 316 238 C315.55698838 236.09199088 315.10464058 234.18614812 314.6484375 232.28125 C314.39755371 231.21970703 314.14666992 230.15816406 313.88818359 229.06445312 C311.70381874 221.52785398 307.54341212 216.61106461 300.77734375 212.72265625 C282.7824724 203.12724572 260.01276963 205.45251963 241 211 C232.33453018 213.63813328 225.14107589 217.50661156 217.6796875 222.5234375 C216.79539062 223.01070312 215.91109375 223.49796875 215 224 C211.29150392 222.76383464 211.15339887 221.94129682 209.44042969 218.54370117 C208.95693054 217.59569138 208.4734314 216.64768158 207.97528076 215.67094421 C207.46265686 214.63871231 206.95003296 213.60648041 206.421875 212.54296875 C205.89104309 211.48846024 205.36021118 210.43395172 204.81329346 209.3474884 C203.69214447 207.11298508 202.57613386 204.87589741 201.46484375 202.63647461 C199.7583744 199.20434299 198.02882887 195.78456252 196.296875 192.36523438 C195.21212324 190.19602123 194.12874355 188.0261213 193.046875 185.85546875 C192.52615417 184.82930954 192.00543335 183.80315033 191.46893311 182.74589539 C190.9980426 181.78842911 190.5271521 180.83096283 190.04199219 179.84448242 C189.62246277 179.00366623 189.20293335 178.16285004 188.77069092 177.29655457 C187.89591901 174.68985274 187.96992333 173.52174012 189 171 C190.57202148 169.72314453 190.57202148 169.72314453 192.62109375 168.6328125 C193.38212402 168.22506592 194.1431543 167.81731934 194.92724609 167.3972168 C196.16982178 166.76746948 196.16982178 166.76746948 197.4375 166.125 C198.29424316 165.68518799 199.15098633 165.24537598 200.03369141 164.79223633 C219.4612027 155.08918848 241.44523822 149.95332931 263 148 C264.21300781 147.88914062 265.42601562 147.77828125 266.67578125 147.6640625 C297.6315013 145.16053979 335.62626598 147.42122086 360.6484375 168.19921875 C363.14980366 170.4181726 365.58667865 172.68597452 368 175 C369.36125 176.2684375 369.36125 176.2684375 370.75 177.5625 C392.86512417 201.52055118 393.49620786 233.61283434 393.30418181 264.38005471 C393.28510175 267.96739663 393.28364044 271.55475078 393.28010559 275.14213562 C393.27087522 281.89887461 393.24638712 288.65546355 393.21605712 295.41213721 C393.17587113 304.56818936 393.15998522 313.72428414 393.14255047 322.88040257 C393.1145565 337.25371355 393.05472837 351.62670828 393 366 C369.57 366 346.14 366 322 366 C321.67 358.08 321.34 350.16 321 342 C318.03 345.96 318.03 345.96 315 350 C302.71270882 363.97378213 284.58702232 368.45638327 266.65234375 369.83984375 C241.99670443 371.32862315 217.53705141 366.44691001 198.2734375 350.14453125 C190.26164811 342.58701858 185.54660633 333.86045249 181 324 C180.46890625 324.73605469 179.9378125 325.47210937 179.390625 326.23046875 C178.68421875 327.20628906 177.9778125 328.18210937 177.25 329.1875 C176.55390625 330.15042969 175.8578125 331.11335938 175.140625 332.10546875 C159.67274471 353.02097842 135.41661383 365.06775362 110.125 369.3125 C84.95506535 372.30412652 59.53079024 369.23673913 38.671875 354.1484375 C36 352 36 352 32 348 C31.67 353.94 31.34 359.88 31 366 C6.91 366 -17.18 366 -42 366 C-42.33 316.17 -42.66 266.34 -43 215 C-56.2692473 225.31914532 -56.2692473 225.31914532 -69.5 235.6875 C-77.69797113 241.75707388 -83.21486642 244.55517193 -93.5625 243.3125 C-99.70128037 242.59970323 -102.6948544 243.87440051 -107.48828125 247.65234375 C-108.23658203 248.31943359 -108.23658203 248.31943359 -109 249 C-111.64752004 246.42215154 -113.94432065 244.08351902 -116 241 C-118.64423726 240.53235713 -118.64423726 240.53235713 -121.7578125 240.6015625 C-122.9334375 240.59535889 -124.1090625 240.58915527 -125.3203125 240.58276367 C-126.57585937 240.59670166 -127.83140625 240.61063965 -129.125 240.625 C-131.03539062 240.6391394 -131.03539062 240.6391394 -132.984375 240.65356445 C-150.71517609 240.9368149 -167.4502026 243.6129698 -181 256 C-181.77041626 256.6959729 -181.77041626 256.6959729 -182.55639648 257.40600586 C-187.73966043 262.30425935 -191.53719434 267.87091287 -195.4375 273.8125 C-200.30306577 281.17948516 -205.40252734 288.17176239 -211 295 C-211.97920962 296.24996635 -212.9583854 297.49995922 -213.9375 298.75 C-220.67797275 306.43016332 -230.23753796 311.26297732 -240.39648438 312.22753906 C-255.90844633 313.14715202 -268.85166001 311.4593748 -281 301 C-288.05833333 293.88333333 -288.05833333 293.88333333 -290 290 C-291.75478992 289.53821318 -293.53092952 289.15679832 -295.3125 288.8125 C-308.63193905 285.66081347 -319.37064722 277.40601446 -326.96875 266.2109375 C-328.16799264 263.63983396 -328.19681196 261.80457039 -328 259 C-322.94990365 259.50046 -319.83456008 261.09240944 -315.625 263.875 C-308.5976022 268.38150574 -302.34808835 271.13040746 -294 272 C-293.99742187 271.34515625 -293.99484375 270.6903125 -293.9921875 270.015625 C-293.60334035 260.83883231 -290.53367031 253.29770713 -284.6875 246.1875 C-283.800625 245.465625 -282.91375 244.74375 -282 244 C-281.38769531 243.44957031 -280.77539062 242.89914062 -280.14453125 242.33203125 C-268.47596337 232.36380113 -252.28617345 228.69063391 -237.16064453 229.73535156 C-230.93176545 230.49830127 -224.84567751 232.22567301 -218.78515625 233.80859375 C-204.34150025 237.53004593 -188.30512304 237.49074156 -174.8984375 230.25 C-172.5900688 228.73008645 -170.5076059 227.00709722 -168.375 225.25 C-165.70798457 223.12913107 -164.36863297 222.07679854 -161 221.375 C-158.47509494 221.90102189 -156.39414216 222.5933947 -154 223.5 C-145.71645105 226.47646166 -136.53059455 225.34579354 -128 224 C-128.37697021 223.46221924 -128.75394043 222.92443848 -129.14233398 222.37036133 C-136.45702689 211.93336687 -143.7633127 201.49128212 -151 191 C-149.49155425 186.44301704 -145.75623392 184.49535211 -141.9375 182 C-140.47582255 181.0206347 -139.01490946 180.04012785 -137.5546875 179.05859375 C-136.80026367 178.55440918 -136.04583984 178.05022461 -135.26855469 177.53076172 C-131.66083289 175.09636485 -128.11161221 172.58125141 -124.5625 170.0625 C-123.13674018 169.05335513 -121.71095882 168.04424071 -120.28515625 167.03515625 C-119.57762207 166.53387207 -118.87008789 166.03258789 -118.14111328 165.51611328 C-114.59702704 163.00656077 -111.0482939 160.50359782 -107.5 158 C-106.08331078 157.00003196 -104.66664412 156.00003195 -103.25 155 C-100.41666667 153 -97.58333333 151 -94.75 149 C-94.04786377 148.50435547 -93.34572754 148.00871094 -92.62231445 147.49804688 C-91.21467187 146.50445491 -89.80695776 145.51096427 -88.39916992 144.51757812 C-84.71882267 141.9203886 -81.03997001 139.32111661 -77.36328125 136.71875 C-76.60144531 136.17992187 -75.83960938 135.64109375 -75.0546875 135.0859375 C-73.60500446 134.06055193 -72.15575556 133.03455218 -70.70703125 132.0078125 C-70.04703125 131.54117188 -69.38703125 131.07453125 -68.70703125 130.59375 C-68.1344458 130.18833984 -67.56186035 129.78292969 -66.97192383 129.36523438 C-64.33789075 127.54159776 -61.66898825 125.77195022 -59 124 C-59.18046371 123.27814514 -59.36092743 122.55629028 -59.54685974 121.81256104 C-60.10106375 119.59574501 -60.6552624 117.37892765 -61.2094574 115.16210938 C-61.86871899 112.52505252 -62.52803798 109.88801002 -63.18739319 107.25097656 C-64.82340227 100.70769927 -66.45908097 94.16434013 -68.09324455 87.62060165 C-69.00857409 83.95535025 -69.92414459 80.29015907 -70.83984375 76.625 C-71.02091549 75.90022713 -71.20198723 75.17545425 -71.38854599 74.42871857 C-73.60116005 65.57408469 -75.82416127 56.72218508 -78.06640625 47.875 C-78.68860686 45.41342163 -79.31053729 42.95177515 -79.93240356 40.4901123 C-80.48861102 38.29494849 -81.04978689 36.10109346 -81.61108398 33.90722656 C-81.93889815 32.61009143 -82.26647196 31.31289551 -82.59375 30.015625 C-83.00657227 28.39575684 -83.00657227 28.39575684 -83.42773438 26.74316406 C-84 24 -84 24 -84 20 C-73.49173893 17.38822172 -62.98255562 14.78019115 -52.47217083 12.17697144 C-47.59206955 10.96813879 -42.71229821 9.75800638 -37.83325195 8.54492188 C-33.12671153 7.37477816 -28.41934266 6.20802479 -23.71137428 5.04364014 C-21.91329696 4.59829937 -20.11552409 4.15172759 -18.31805992 3.70391846 C-15.80487028 3.07801878 -13.29064418 2.45646283 -10.77612305 1.8359375 C-10.02949905 1.64892273 -9.28287506 1.46190796 -8.5136261 1.26922607 C-5.59555612 0.55304851 -3.01761423 0 0 0 Z M49 218 C48.09507812 218.75216797 48.09507812 218.75216797 47.171875 219.51953125 C37.462481 228.19466371 33.63228935 241.26211251 32.71875 253.88671875 C32.15885573 269.92146864 35.47132352 285.31154506 46.5625 297.375 C56.71357202 306.92623594 68.34213064 309.53874422 81.859375 309.26953125 C93.3044559 308.73714091 102.96732314 303.24995547 110.84375 295.08984375 C119.37913018 284.48594031 122.39683768 272.02140877 122.3125 258.6875 C122.30758545 257.76541748 122.3026709 256.84333496 122.29760742 255.89331055 C122.06644699 242.41369361 118.45013007 229.9123144 109.0703125 219.8828125 C98.70243936 210.45391655 87.59117161 207.32931389 73.78515625 207.65234375 C64.15051665 208.53725905 56.1476074 211.46911094 49 218 Z M-272.55859375 254.4765625 C-276.97503813 259.3778984 -279.71787899 265.13717994 -279.40625 271.82421875 C-278.22885395 278.13008031 -275.2055451 283.44879748 -270.1875 287.4375 C-262.53246719 292.50269928 -254.15525093 294.89068231 -244.9765625 293.5625 C-234.57462753 291.25678142 -227.16771698 286.80149883 -221 278 C-218.45337333 272.72788659 -218.22385557 267.75640455 -219 262 C-221.5068342 255.46432512 -226.74758533 250.3112912 -232.83984375 247 C-246.67422072 241.11543883 -261.75748634 244.24393443 -272.55859375 254.4765625 Z M255.6875 288.5625 C252.02387953 293.85439623 252.42851237 299.79412733 253 306 C254.69193093 311.3658381 258.45841028 314.8558225 263 318 C273.42654323 322.5845633 285.19507833 322.76667837 296 319.0625 C304.53914523 315.22419735 312.33462163 308.97541612 316.14257812 300.22387695 C317.27310386 295.97313882 317.20183674 292.02697296 317.1171875 287.65234375 C317.10872803 286.81892456 317.10026855 285.98550537 317.09155273 285.12683105 C317.06959945 283.08444402 317.03597513 281.04218817 317 279 C311.05927213 278.9253485 305.1188227 278.87116228 299.17773438 278.83520508 C297.16043333 278.82020116 295.14316444 278.79979145 293.12597656 278.77368164 C290.21150737 278.73692647 287.29747274 278.72018932 284.3828125 278.70703125 C283.49385284 278.69154739 282.60489319 278.67606354 281.68899536 278.66011047 C271.73891354 278.65748924 262.55021244 280.9578727 255.6875 288.5625 Z " fill="#000000" transform="translate(400,557)"/>
<path d="M0 0 C1.93963475 7.47050826 3.8784248 14.94123538 5.81665039 22.41210938 C6.47498825 24.94926826 7.13351365 27.4863785 7.79223633 30.0234375 C8.74350485 33.68736953 9.69408041 37.35148078 10.64453125 41.015625 C10.9352803 42.13487366 11.22602936 43.25412231 11.52558899 44.4072876 C12.08196528 46.55324613 12.63630381 48.69973424 13.18838501 50.84680176 C13.74548793 53.01119738 14.30827149 55.17413639 14.87582397 57.33581543 C15.15100861 58.40029907 15.42619324 59.46478271 15.7097168 60.56152344 C15.95787643 61.51170349 16.20603607 62.46188354 16.4617157 63.44085693 C17 66 17 66 17 70 C27.43525823 62.86526086 37.79924741 55.6373334 48.11572266 48.33203125 C52.06633725 45.53926716 56.03239105 42.76855268 60 40 C64.09749387 43.67497052 66.90385619 48.08205571 69.9375 52.625 C74.3801437 59.20039007 78.89621526 65.70629905 83.5625 72.125 C84.09045166 72.85420654 84.61840332 73.58341309 85.16235352 74.3347168 C87.35205237 77.35804547 89.54455532 80.37907751 91.75244141 83.38916016 C93.46917525 85.73205832 95.17295237 88.08392074 96.875 90.4375 C97.40552979 91.15373535 97.93605957 91.8699707 98.48266602 92.60791016 C99.73515134 94.3504433 100.87885113 96.17020043 102 98 C100.37413279 102.87760163 96.05180438 104.83025984 91.9375 107.6875 C91.12216797 108.27466797 90.30683594 108.86183594 89.46679688 109.46679688 C82.37340537 114.43163069 74.88684068 118.2192152 67.11483765 121.97390747 C63.6183986 123.67033556 60.14435872 125.41139797 56.66796875 127.1484375 C55.26942409 127.84524507 53.87082346 128.54194031 52.47216797 129.23852539 C41.35079168 134.78256908 30.23869929 140.32569947 19.27807617 146.18310547 C11.591351 150.26659796 3.79181442 154.12231176 -4 158 C-14.11887426 163.0374607 -24.19348014 168.13353526 -34.171875 173.4453125 C-39.09553519 176.06324836 -44.05335408 178.61367972 -49.01025391 181.16796875 C-69.84542936 191.9134778 -90.43804641 203.07817144 -110.0625 215.9375 C-122.55147059 224 -122.55147059 224 -128 224 C-129.36938477 222.37036133 -129.36938477 222.37036133 -130.94140625 220.08203125 C-131.52132324 219.24510742 -132.10124023 218.40818359 -132.69873047 217.54589844 C-133.31377441 216.64387695 -133.92881836 215.74185547 -134.5625 214.8125 C-135.50053467 213.45366699 -135.50053467 213.45366699 -136.45751953 212.06738281 C-137.71845688 210.23972112 -138.97661731 208.41014032 -140.23193359 206.57861328 C-142.21044654 203.693077 -144.2032367 200.81772478 -146.19897461 197.9440918 C-147.80371369 195.63242801 -149.40216441 193.3164389 -151 191 C-149.49155425 186.44301704 -145.75623392 184.49535211 -141.9375 182 C-140.47582255 181.0206347 -139.01490946 180.04012785 -137.5546875 179.05859375 C-136.42305176 178.30231689 -136.42305176 178.30231689 -135.26855469 177.53076172 C-131.66083289 175.09636485 -128.11161221 172.58125141 -124.5625 170.0625 C-123.13674018 169.05335513 -121.71095882 168.04424071 -120.28515625 167.03515625 C-119.57762207 166.53387207 -118.87008789 166.03258789 -118.14111328 165.51611328 C-114.59702704 163.00656077 -111.0482939 160.50359782 -107.5 158 C-106.08331078 157.00003196 -104.66664412 156.00003195 -103.25 155 C-100.41666667 153 -97.58333333 151 -94.75 149 C-94.04786377 148.50435547 -93.34572754 148.00871094 -92.62231445 147.49804688 C-91.21467187 146.50445491 -89.80695776 145.51096427 -88.39916992 144.51757812 C-84.71882267 141.9203886 -81.03997001 139.32111661 -77.36328125 136.71875 C-76.60144531 136.17992187 -75.83960938 135.64109375 -75.0546875 135.0859375 C-73.60500446 134.06055193 -72.15575556 133.03455218 -70.70703125 132.0078125 C-69.71703125 131.30785156 -69.71703125 131.30785156 -68.70703125 130.59375 C-68.1344458 130.18833984 -67.56186035 129.78292969 -66.97192383 129.36523438 C-64.33789075 127.54159776 -61.66898825 125.77195022 -59 124 C-59.27069557 122.91721771 -59.27069557 122.91721771 -59.54685974 121.81256104 C-60.10106375 119.59574501 -60.6552624 117.37892765 -61.2094574 115.16210938 C-61.86871899 112.52505252 -62.52803798 109.88801002 -63.18739319 107.25097656 C-64.82340227 100.70769927 -66.45908097 94.16434013 -68.09324455 87.62060165 C-69.00857409 83.95535025 -69.92414459 80.29015907 -70.83984375 76.625 C-71.02091549 75.90022713 -71.20198723 75.17545425 -71.38854599 74.42871857 C-73.60116005 65.57408469 -75.82416127 56.72218508 -78.06640625 47.875 C-78.68860686 45.41342163 -79.31053729 42.95177515 -79.93240356 40.4901123 C-80.48861102 38.29494849 -81.04978689 36.10109346 -81.61108398 33.90722656 C-81.93889815 32.61009143 -82.26647196 31.31289551 -82.59375 30.015625 C-82.86896484 28.93571289 -83.14417969 27.85580078 -83.42773438 26.74316406 C-84 24 -84 24 -84 20 C-73.49173893 17.38822172 -62.98255562 14.78019115 -52.47217083 12.17697144 C-47.59206955 10.96813879 -42.71229821 9.75800638 -37.83325195 8.54492188 C-33.12671153 7.37477816 -28.41934266 6.20802479 -23.71137428 5.04364014 C-21.91329696 4.59829937 -20.11552409 4.15172759 -18.31805992 3.70391846 C-15.80487028 3.07801878 -13.29064418 2.45646283 -10.77612305 1.8359375 C-10.02949905 1.64892273 -9.28287506 1.46190796 -8.5136261 1.26922607 C-5.59555612 0.55304851 -3.01761423 0 0 0 Z " fill="#FDFDFD" transform="translate(400,557)"/>
<path d="M0 0 C1.92337461 7.37842283 3.84357651 14.75766639 5.76171875 22.13745117 C6.41270515 24.64056465 7.06438063 27.14349905 7.71679688 29.64624023 C11.3005857 43.39600672 14.85476448 57.14238949 18 71 C7.27344255 78.94393968 -3.59817411 86.65515297 -14.54833984 94.28759766 C-18.27040234 96.8873334 -21.97973437 99.50493205 -25.6875 102.125 C-26.71085449 102.84707642 -26.71085449 102.84707642 -27.75488281 103.58374023 C-31.37303149 106.13795438 -34.98473089 108.70085327 -38.58984375 111.2734375 C-39.34885986 111.81339355 -40.10787598 112.35334961 -40.88989258 112.90966797 C-42.33044432 113.93465476 -43.76922534 114.96213701 -45.20581055 115.99267578 C-49.34710251 118.93513258 -53.54908773 121.54910805 -58 124 C-60.09951623 117.95472476 -61.89142153 111.89312178 -63.4519043 105.68823242 C-63.6766745 104.80576843 -63.9014447 103.92330444 -64.13302612 103.01409912 C-64.86689607 100.12875756 -65.59579147 97.24218876 -66.32421875 94.35546875 C-66.83543699 92.33763144 -67.34681753 90.31983525 -67.85835266 88.30207825 C-68.92552461 84.08908815 -69.99011191 79.87545519 -71.05297852 75.66137695 C-72.41600425 70.25847852 -73.78646251 64.85749656 -75.15895367 59.45699596 C-76.21487379 55.29805283 -77.26639538 51.13800717 -78.31662941 46.97762489 C-78.82032275 44.9849258 -79.32550163 42.9926016 -79.83218956 41.00066185 C-80.53810129 38.22316428 -81.23796528 35.44421092 -81.9362793 32.66479492 C-82.25181007 31.43119987 -82.25181007 31.43119987 -82.57371521 30.17268372 C-83.45326717 26.64787432 -84 23.65568908 -84 20 C-73.49173893 17.38822172 -62.98255562 14.78019115 -52.47217083 12.17697144 C-47.59206955 10.96813879 -42.71229821 9.75800638 -37.83325195 8.54492188 C-33.12671153 7.37477816 -28.41934266 6.20802479 -23.71137428 5.04364014 C-21.91329696 4.59829937 -20.11552409 4.15172759 -18.31805992 3.70391846 C-15.80487028 3.07801878 -13.29064418 2.45646283 -10.77612305 1.8359375 C-10.02949905 1.64892273 -9.28287506 1.46190796 -8.5136261 1.26922607 C-5.59555612 0.55304851 -3.01761423 0 0 0 Z " fill="#000000" transform="translate(400,557)"/>
<path d="M0 0 C-0.60328125 0.88300781 -1.2065625 1.76601563 -1.828125 2.67578125 C-9.58357485 14.22641681 -15.95053651 26.13719161 -13.5703125 40.61328125 C-13.20470536 42.10325554 -12.82807068 43.59059262 -12.4375 45.07421875 C-11.7513064 48.09469595 -11.94406406 50.09617615 -13 53 C-14.39534744 54.16278953 -15.79860815 55.31812344 -17.25 56.41015625 C-25.21334253 63.64471074 -30.57749813 76.48715823 -31.10839844 87.18408203 C-31.17121309 89.83207997 -31.18936318 92.47625896 -31.1875 95.125 C-31.1884668 96.53906128 -31.1884668 96.53906128 -31.18945312 97.98168945 C-31.14581821 103.72315133 -30.67781997 109.06660231 -29.45703125 114.6875 C-26.20182544 131.15828493 -32.68599119 148.03743252 -41.69140625 161.53515625 C-47.28815409 168.53446258 -56.08502533 174.64008861 -65 176 C-77.77624317 176.84548668 -87.95946502 175.26441147 -98 167 C-105.67479474 160.01787627 -111.28952418 150.42771316 -112.17700195 139.90039062 C-112.48404656 128.65595216 -112.74496853 118.10394969 -106.86328125 108.05859375 C-105.36408037 104.48357627 -106.02532151 100.77977282 -106.22265625 96.97265625 C-105.94373514 93.24881474 -104.65308725 90.65308725 -102 88 C-94.78485458 87.75949515 -94.78485458 87.75949515 -91.74926758 88.68969727 C-87.97072897 89.11617116 -86.12884389 87.90508978 -82.80859375 86.09765625 C-82.22263931 85.78227402 -81.63668488 85.46689178 -81.03297424 85.14195251 C-79.79135882 84.47007895 -78.55345158 83.79131346 -77.3190918 83.10620117 C-75.47520595 82.08341513 -73.621082 81.0819551 -71.76367188 80.08398438 C-53.2640615 70.05327969 -38.36877386 59.82423519 -31.59082031 39.01953125 C-27.88479542 26.35166436 -26.2894637 13.09823657 -25 0 C-23.99839844 0.09539063 -22.99679687 0.19078125 -21.96484375 0.2890625 C-20.62245181 0.40171077 -19.28000043 0.51365218 -17.9375 0.625 C-16.62652344 0.74101563 -15.31554687 0.85703125 -13.96484375 0.9765625 C-8.96408825 1.00612362 -4.70240225 -1.56746742 0 0 Z M-87.54296875 113.0234375 C-93.13642834 121.58585952 -95.23911587 131.60287873 -93.375 141.75 C-91.16183608 149.89444321 -86.34549888 155.80395435 -79.14453125 160.109375 C-74.37508766 162.09012753 -68.54232486 161.83032159 -63.6796875 160.2421875 C-61.68215858 159.27760129 -59.85371698 158.21597032 -58 157 C-57.13375 156.46375 -56.2675 155.9275 -55.375 155.375 C-47.69320833 147.69320833 -44.12614549 137.7223669 -44 127 C-44.87263372 118.75845926 -47.4566415 110.51998964 -54 105 C-67.10734262 97.89836286 -78.6215244 101.32392314 -87.54296875 113.0234375 Z " fill="#000000" transform="translate(324,803)"/>
<path d="M0 0 C-0.29076282 6.37601319 -3.72743022 10.56994711 -7.25 15.625 C-8.54664956 17.52661006 -9.84219946 19.42897037 -11.13671875 21.33203125 C-12.11777588 22.76603271 -12.11777588 22.76603271 -13.11865234 24.22900391 C-15.82711376 28.2182379 -18.4488413 32.2607751 -21.0625 36.3125 C-25.00873013 42.40811593 -28.97321213 48.49140383 -32.95703125 54.5625 C-33.3948996 55.23078323 -33.83276794 55.89906647 -34.28390503 56.58760071 C-36.56125975 60.06080272 -38.84845132 63.52683911 -41.15429688 66.98120117 C-45.2315857 73.10869939 -49.19240037 79.1962826 -52.69921875 85.67578125 C-61.46750493 101.48985337 -72.34854105 107.60967494 -88.51318359 114.46337891 C-93.80593942 116.79586772 -98.82992247 119.55458296 -103.875 122.375 C-104.76485596 122.86403809 -105.65471191 123.35307617 -106.5715332 123.85693359 C-110.54183054 126.04416774 -114.48578901 128.26981057 -118.3984375 130.55859375 C-119.38674561 131.13504639 -119.38674561 131.13504639 -120.39501953 131.72314453 C-122.1076303 132.728892 -123.81202551 133.74859424 -125.515625 134.76953125 C-126.33546875 135.17558594 -127.1553125 135.58164062 -128 136 C-128.66 135.67 -129.32 135.34 -130 135 C-129.55197021 134.55720703 -129.10394043 134.11441406 -128.64233398 133.65820312 C-126.57129904 131.60823317 -124.50439303 129.55414567 -122.4375 127.5 C-121.73302734 126.80390625 -121.02855469 126.1078125 -120.30273438 125.390625 C-116.20846502 121.31522325 -112.31276057 117.14058638 -108.54321289 112.76367188 C-106.62497566 110.57140076 -104.59030096 108.52790391 -102.5 106.5 C-99.73439592 103.77170593 -97.08712969 101.01483166 -94.5625 98.0625 C-91.84380752 94.8896408 -88.97248325 91.93661618 -86 89 C-83.04816975 86.08373397 -80.19611141 83.15394165 -77.5 80 C-74.01667458 75.9251665 -70.22181292 72.20707008 -66.41015625 68.44140625 C-63.73145468 65.72797273 -61.25391882 62.89222977 -58.77734375 59.99609375 C-56.04900715 56.93196187 -53.10332092 54.09518168 -50.18359375 51.21484375 C-48.22025329 49.22340539 -46.37920331 47.18697422 -44.5625 45.0625 C-41.0553056 40.96941697 -37.24274842 37.22775296 -33.41015625 33.44140625 C-30.73145468 30.72797273 -28.25391882 27.89222977 -25.77734375 24.99609375 C-23.05388973 21.93744539 -20.11385222 19.10551467 -17.19921875 16.23046875 C-14.5495937 13.54319361 -12.09524007 10.72084254 -9.6328125 7.86328125 C-2.74213836 0 -2.74213836 0 0 0 Z " fill="#040404" transform="translate(450,613)"/>
<path d="M0 0 C2.9375 0.75 2.9375 0.75 4.9375 2.75 C4.48295455 8.20454545 4.48295455 8.20454545 1.9375 10.75 C-1.0625 11 -1.0625 11 -4.0625 10.75 C-6.0625 8.75 -6.0625 8.75 -6.375 5.25 C-6.271875 4.095 -6.16875 2.94 -6.0625 1.75 C-3.0625 -0.25 -3.0625 -0.25 0 0 Z " fill="#F4F4F4" transform="translate(319.0625,772.25)"/>
<path d="M0 0 C5.86928404 -0.18059336 10.44542412 0.10908055 16 2 C12.80331012 4.6486859 9.60513403 6.93992341 6 9 C4.02 6.03 2.04 3.06 0 0 Z " fill="#F4F4F4" transform="translate(284,797)"/>
</svg>
