<?xml version="1.0" encoding="utf-8"?>
<!-- Generator: Adobe Illustrator 28.0.0, SVG Export Plug-In . SVG Version: 6.00 Build 0)  -->
<svg version="1.0" id="katman_1" xmlns="http://www.w3.org/2000/svg" xmlns:xlink="http://www.w3.org/1999/xlink" x="0px" y="0px"
	 viewBox="0 0 385.78 384.43" style="enable-background:new 0 0 385.78 384.43;" xml:space="preserve">
<style type="text/css">
	.st0{fill:#111110;}
</style>
<g id="SvgjsG1067" transform="matrix(1.5188029468124975,0,0,1.5188029468124975,99.04302754128146,5.342822044414074)">
	<path class="st0" d="M12.71,115.25l20.12-2.76l-1.65-1.65l20.67-20.67l-2.48,13.23l-7.99,7.99l35.82-4.96
		c0.28-1.1,0-2.48-0.83-3.31c-0.83-0.83-2.2-1.1-3.58-0.83L92.07-3.52l0,0C74.43,10.54,62.58,30.65,58.45,52.97L53.49,80.8
		c-1.38-0.55-2.76-0.28-3.86,0.83l-23.7,23.7l-5.51-5.51l23.7-23.7c1.38-1.38,1.38-3.86,0-5.24l0,0c-1.38-1.38-3.86-1.38-5.24,0
		l-23.7,23.7l-5.51-5.51l23.7-23.7c1.38-1.38,1.38-3.86,0-5.24c-1.38-1.38-3.86-1.38-5.24,0l-23.7,23.7l-5.51-5.51l23.7-23.7
		c1.38-1.38,1.38-3.86,0-5.24c-1.38-1.38-3.86-1.38-5.24,0l-23.7,23.7l-5.51-5.51l23.7-23.7c1.38-1.38,1.38-3.86,0-5.24
		c-1.38-1.38-3.86-1.38-5.24,0l-23.7,23.7l-5.51-5.51l23.7-23.7c1.38-1.38,1.38-3.86,0-5.24c-1.38-1.38-3.86-1.38-5.24,0l-23.7,23.7
		c-2.48-2.48-2.48-6.61,0-9.37l17.91-17.36c3.58-3.58,3.58-9.09,0-12.68l-31.96,31.69c-4.68,4.68-4.68,12.12,0,16.53L12.71,115.25z"
		/>
	<path class="st0" d="M155.45,190.2l-17.64,17.64c-2.48,2.48-6.89,2.48-9.37,0l-0.55-0.55l23.7-23.7c1.38-1.38,1.38-3.86,0-5.24
		c-1.38-1.38-3.86-1.38-5.24,0l-23.7,23.7l-5.51-5.51l23.7-23.7c1.38-1.38,1.38-3.86,0-5.24l0,0c-1.38-1.38-3.86-1.38-5.24,0
		l-23.7,23.7l-5.51-5.51l23.7-23.7c1.38-1.38,1.38-3.86,0-5.24c-1.38-1.38-3.86-1.38-5.24,0l-23.7,23.7l-5.51-5.51l23.7-23.7
		c1.38-1.38,1.38-3.86,0-5.24c-1.38-1.38-3.86-1.38-5.24,0l-23.7,23.7l-5.51-5.51l23.7-23.7c0.83-0.83,1.1-2.2,0.83-3.58l-9.09,1.38
		l-20.67,20.67l-5.51-5.51l13.5-13.5l-12.12,1.65l-6.61,6.61l-3.58-3.58l0.28-1.93c-1.93,0-3.58,0.28-5.51,0.28
		c-7.44,0-14.33-0.83-21.22-1.38l8.82,8.82c0.83,14.33,1.1,28.66-5.51,44.09c-7.16,4.13-12.95,11.57-14.6,20.94
		c-2.76,15.71,6.61,30.86,21.22,33.62s28.66-7.99,31.69-23.97c2.76-15.71-6.61-30.86-21.22-33.62c-0.83-0.28-1.65-0.28-2.48-0.28
		l4.96-26.73l58.14,58.14c4.68,4.68,12.12,4.68,16.53,0l31.96-32.52C164.82,186.61,159.03,186.61,155.45,190.2z M57.07,202.32
		c8.82,1.65,14.6,10.75,12.95,20.39c-1.65,9.64-10.2,15.98-19.29,14.33s-14.6-10.75-12.95-20.39
		C39.71,207.28,48.26,200.94,57.07,202.32z"/>
	<g>
		<path class="st0" d="M-7.13,123.79c0-0.83,0-1.65-0.28-2.48c-1.93-14.6-16.53-24.8-32.52-22.6c-15.71,2.2-27,15.98-25.08,30.59
			c1.93,14.6,16.53,24.8,32.52,22.6c9.37-1.38,17.08-6.61,21.49-13.5c29.21-11.3,54.01,1.65,83.49-2.2l58.42-7.99
			c22.32-3.03,42.99-14.05,57.87-31.14l0,0L-7.13,123.79z M-18.7,122.96c1.1,8.82-5.51,17.08-15.43,18.46
			c-9.64,1.38-18.46-4.96-19.56-13.78c-1.1-8.82,5.51-17.08,15.43-18.46C-28.62,108.08-19.81,114.14-18.7,122.96z"/>
	</g>
</g>
</svg>
